<svg xmlns="http://www.w3.org/2000/svg" xmlns:xlink="http://www.w3.org/1999/xlink" width="1920" zoomAndPan="magnify" viewBox="0 0 1440 809.999993" height="1080" preserveAspectRatio="xMidYMid meet" version="1.0"><path fill="#d8d7b8" d="M 381.316406 376.667969 C 378.097656 376.667969 374.878906 376.027344 372.304688 374.738281 L 164.332031 254.332031 C 158.535156 251.113281 155.316406 245.316406 154.671875 239.523438 C 154.027344 233.085938 157.246094 227.289062 161.753906 223.425781 L 269.925781 139.078125 C 276.367188 133.925781 284.09375 133.28125 291.175781 137.144531 L 417.375 209.90625 C 425.101562 215.054688 428.320312 224.070312 425.101562 233.085938 C 410.292969 273.003906 401.921875 315.5 399.988281 359.285156 C 399.988281 365.722656 396.125 371.519531 390.332031 374.738281 C 387.757812 376.027344 384.535156 376.667969 381.316406 376.667969 Z M 381.316406 376.667969 " fill-opacity="1" fill-rule="evenodd"/><path fill="#e8bc78" d="M 807.566406 810 C 540.355469 806.136719 407.714844 634.222656 372.945312 474.539062 C 329.808594 276.867188 418.019531 83.058594 586.714844 1.933594 C 591.222656 0 596.375 0 600.878906 1.289062 C 606.675781 3.21875 729.65625 48.933594 807.566406 203.464844 C 885.476562 48.933594 1009.101562 3.21875 1014.25 1.289062 C 1019.402344 0 1024.554688 0 1029.058594 1.933594 C 1197.757812 83.058594 1285.96875 276.867188 1242.828125 474.539062 C 1207.414062 634.222656 1075.417969 806.136719 808.210938 810 C 808.210938 810 808.210938 810 807.566406 810 Z M 807.566406 810 " fill-opacity="1" fill-rule="evenodd"/><path fill="#bf9a5d" d="M 788.894531 169.984375 C 795.332031 180.285156 801.769531 191.875 807.566406 203.464844 C 814.003906 191.875 819.800781 180.285156 826.238281 169.984375 C 826.238281 177.710938 824.304688 245.960938 862.296875 287.171875 C 881.613281 307.773438 909.296875 318.71875 944.710938 319.363281 C 955.015625 319.363281 963.382812 327.734375 963.382812 338.035156 C 962.742188 348.339844 954.371094 356.710938 944.710938 356.710938 C 944.066406 356.710938 944.066406 356.710938 944.066406 356.710938 C 898.351562 356.066406 861.652344 341.257812 834.609375 312.28125 C 788.25 261.414062 788.25 186.082031 788.894531 169.984375 Z M 788.894531 169.984375 " fill-opacity="1" fill-rule="evenodd"/><path fill="#d8d7b8" d="M 852.636719 131.996094 C 925.394531 34.125 1009.742188 3.21875 1014.25 1.289062 C 1019.402344 0 1024.554688 0 1029.058594 1.933594 C 1114.695312 43.140625 1179.726562 113.964844 1217.074219 198.957031 C 1176.507812 245.960938 1117.269531 272.359375 1054.816406 272.359375 C 964.027344 272.359375 883.542969 216.34375 852.636719 131.996094 Z M 852.636719 131.996094 " fill-opacity="1" fill-rule="evenodd"/><path fill="#bf9a5d" d="M 807.566406 688.949219 C 676.859375 686.375 575.125 630.359375 521.683594 531.199219 C 473.390625 441.058594 470.816406 328.378906 514.601562 236.949219 C 519.109375 227.933594 530.054688 224.070312 539.710938 228.578125 C 548.726562 233.085938 552.589844 244.03125 548.082031 253.6875 C 510.09375 332.886719 512.667969 435.261719 554.519531 513.171875 C 614.402344 624.5625 725.792969 649.675781 808.210938 651.605469 C 818.511719 651.605469 826.882812 659.976562 826.238281 670.277344 C 826.238281 680.582031 817.867188 688.949219 807.566406 688.949219 Z M 807.566406 688.949219 " fill-opacity="1" fill-rule="evenodd"/></svg>