<svg xmlns="http://www.w3.org/2000/svg" xmlns:xlink="http://www.w3.org/1999/xlink" width="2380" zoomAndPan="magnify" viewBox="0 0 1784.88 1784.99993" height="2380" preserveAspectRatio="xMidYMid meet" version="1.0"><defs><clipPath id="5dce079277"><path d="M 337 238 L 1779 238 L 1779 1547.03125 L 337 1547.03125 Z M 337 238 " clip-rule="nonzero"/></clipPath></defs><path fill="#d8d7b8" d="M 368.238281 846.632812 C 363.035156 846.632812 357.828125 845.589844 353.664062 843.507812 L 17.40625 648.832031 C 8.039062 643.628906 2.832031 634.257812 1.792969 624.890625 C 0.75 614.476562 5.957031 605.109375 13.242188 598.863281 L 188.136719 462.484375 C 198.550781 454.15625 211.042969 453.117188 222.492188 459.363281 L 426.539062 577 C 439.03125 585.328125 444.234375 599.902344 439.03125 614.476562 C 415.085938 679.023438 401.554688 747.730469 398.429688 818.523438 C 398.429688 828.933594 392.183594 838.304688 382.8125 843.507812 C 378.648438 845.589844 373.445312 846.632812 368.238281 846.632812 Z M 368.238281 846.632812 " fill-opacity="1" fill-rule="evenodd"/><g clip-path="url(#5dce079277)"><path fill="#e8bc78" d="M 1057.410156 1547.253906 C 625.378906 1541.007812 410.921875 1263.050781 354.707031 1004.871094 C 284.957031 685.269531 427.578125 371.914062 700.332031 240.742188 C 707.621094 237.621094 715.949219 237.621094 723.234375 239.703125 C 732.605469 242.824219 931.445312 316.738281 1057.410156 566.589844 C 1183.378906 316.738281 1383.257812 242.824219 1391.585938 239.703125 C 1399.914062 237.621094 1408.242188 237.621094 1415.53125 240.742188 C 1688.285156 371.914062 1830.90625 685.269531 1761.15625 1004.871094 C 1703.898438 1263.050781 1490.484375 1541.007812 1058.453125 1547.253906 C 1058.453125 1547.253906 1058.453125 1547.253906 1057.410156 1547.253906 Z M 1057.410156 1547.253906 " fill-opacity="1" fill-rule="evenodd"/></g><path fill="#bf9a5d" d="M 1027.222656 512.457031 C 1037.632812 529.113281 1048.042969 547.851562 1057.410156 566.589844 C 1067.820312 547.851562 1077.191406 529.113281 1087.601562 512.457031 C 1087.601562 524.949219 1084.476562 635.300781 1145.898438 701.925781 C 1177.132812 735.238281 1221.894531 752.9375 1279.152344 753.976562 C 1295.808594 753.976562 1309.34375 767.511719 1309.34375 784.167969 C 1308.304688 800.824219 1294.769531 814.359375 1279.152344 814.359375 C 1278.113281 814.359375 1278.113281 814.359375 1278.113281 814.359375 C 1204.199219 813.316406 1144.859375 789.375 1101.136719 742.527344 C 1026.179688 660.285156 1026.179688 538.480469 1027.222656 512.457031 Z M 1027.222656 512.457031 " fill-opacity="1" fill-rule="evenodd"/><path fill="#d8d7b8" d="M 1130.285156 451.035156 C 1247.921875 292.796875 1384.300781 242.824219 1391.585938 239.703125 C 1399.914062 237.621094 1408.242188 237.621094 1415.53125 240.742188 C 1553.988281 307.371094 1659.136719 421.886719 1719.515625 559.304688 C 1653.929688 635.300781 1558.152344 677.980469 1457.171875 677.980469 C 1310.386719 677.980469 1180.253906 587.410156 1130.285156 451.035156 Z M 1130.285156 451.035156 " fill-opacity="1" fill-rule="evenodd"/><path fill="#bf9a5d" d="M 1057.410156 1351.539062 C 846.078125 1347.375 681.59375 1256.804688 595.1875 1096.480469 C 517.109375 950.734375 512.945312 768.554688 583.734375 620.726562 C 591.023438 606.148438 608.722656 599.902344 624.335938 607.191406 C 638.910156 614.476562 645.15625 632.175781 637.871094 647.792969 C 576.449219 775.839844 580.613281 941.367188 648.28125 1067.332031 C 745.097656 1247.433594 925.199219 1288.035156 1058.453125 1291.15625 C 1075.109375 1291.15625 1088.640625 1304.691406 1087.601562 1321.347656 C 1087.601562 1338.003906 1074.066406 1351.539062 1057.410156 1351.539062 Z M 1057.410156 1351.539062 " fill-opacity="1" fill-rule="evenodd"/></svg>